<svg width="0" height="0" class="hidden">
  <symbol  xmlns="http://www.w3.org/2000/svg" viewBox="0 -0.5 25 25" id="pencil">
    <g id="SVGRepo_bgCarrier" stroke-width="0"></g>
    <g id="SVGRepo_tracerCarrier" stroke-linecap="round" stroke-linejoin="round"></g>
    <g id="SVGRepo_iconCarrier">
      <path fill-rule="evenodd" clip-rule="evenodd" d="M17.265 4.16231L19.21 5.74531C19.3978 5.9283 19.5031 6.17982 19.5015 6.44201C19.5 6.70421 19.3919 6.9545 19.202 7.13531L17.724 8.93531L12.694 15.0723C12.6069 15.1749 12.4897 15.2473 12.359 15.2793L9.75102 15.8793C9.40496 15.8936 9.10654 15.6384 9.06702 15.2943L9.18902 12.7213C9.19806 12.5899 9.25006 12.4652 9.33702 12.3663L14.15 6.50131L15.845 4.43331C16.1743 3.98505 16.7938 3.86684 17.265 4.16231Z" stroke="#3e3e42" stroke-width="1.5" stroke-linecap="round" stroke-linejoin="round"></path>
      <path d="M5.5 18.2413C5.08579 18.2413 4.75 18.5771 4.75 18.9913C4.75 19.4056 5.08579 19.7413 5.5 19.7413V18.2413ZM19.2 19.7413C19.6142 19.7413 19.95 19.4056 19.95 18.9913C19.95 18.5771 19.6142 18.2413 19.2 18.2413V19.7413ZM14.8455 6.22062C14.6904 5.83652 14.2534 5.65082 13.8693 5.80586C13.4852 5.9609 13.2995 6.39796 13.4545 6.78206L14.8455 6.22062ZM17.8893 9.66991C18.2933 9.57863 18.5468 9.17711 18.4556 8.77308C18.3643 8.36904 17.9628 8.1155 17.5587 8.20678L17.8893 9.66991ZM5.5 19.7413H19.2V18.2413H5.5V19.7413ZM13.4545 6.78206C13.6872 7.35843 14.165 8.18012 14.8765 8.8128C15.6011 9.45718 16.633 9.95371 17.8893 9.66991L17.5587 8.20678C16.916 8.35198 16.3609 8.12551 15.8733 7.69189C15.3725 7.24656 15.0128 6.63526 14.8455 6.22062L13.4545 6.78206Z"></path>
    </g>
  </symbol>
   <symbol xmlns="http://www.w3.org/2000/svg" viewBox="0 0 26 25" id="basket">
    <path fill-rule="evenodd" clip-rule="evenodd" d="M9.24205 1.04175C5.98394 1.04175 3.46309 3.78749 3.86721 6.89609L5.72945 21.221C5.93275 22.7849 7.31531 23.9584 8.95436 23.9584H17.0456C18.6847 23.9584 20.0672 22.7849 20.2706 21.221L22.1328 6.89609C22.5369 3.78749 20.0161 1.04175 16.758 1.04175H9.24205ZM6.1766 5.20841C6.61987 4.00581 7.81272 3.12508 9.24205 3.12508H16.758C18.1873 3.12508 19.3801 4.00581 19.8234 5.20841H6.1766ZM6.10218 7.29175L7.87939 20.9626C7.94715 21.4839 8.408 21.8751 8.95436 21.8751H17.0456C17.592 21.8751 18.0529 21.4839 18.1206 20.9626L19.8978 7.29175H6.10218Z" ></path>
    <path d="M16.2522 11.4562C15.829 11.0494 15.1432 11.0494 14.7201 11.4562L13 13.1102L11.2884 11.4643C10.8654 11.0576 10.1794 11.0576 9.75635 11.4643C9.33329 11.8712 9.33329 12.5307 9.75635 12.9376L11.4679 14.5833L9.75001 16.2352C9.32694 16.6419 9.32694 17.3015 9.75001 17.7083C10.1731 18.1151 10.859 18.1151 11.282 17.7083L13 16.0564L14.7201 17.7103C15.1432 18.1171 15.829 18.1171 16.2522 17.7103C16.6752 17.3035 16.6752 16.6439 16.2522 16.2371L14.532 14.5833L16.2522 12.9294C16.6752 12.5226 16.6752 11.8631 16.2522 11.4562Z" ></path>
  </symbol>
   <symbol fill="none" xmlns="http://www.w3.org/2000/svg" viewBox="0 0 24 24" id="right">
    <rect width="24" height="24" fill="white"></rect>
    <path d="M9.5 7L14.5 12L9.5 17" stroke="#000000" stroke-linecap="round" stroke-linejoin="round"></path>
  </symbol>
  <symbol fill="none" xmlns="http://www.w3.org/2000/svg" viewBox="0 0 24 24" id="left">
    <rect width="24" height="24" fill="white"></rect>
    <path d="M14.5 17L9.5 12L14.5 7" stroke="#000000" stroke-linecap="round" stroke-linejoin="round"></path>
  </symbol>
</svg>